<svg width="110" height="51" viewBox="0 0 110 51" fill="none" xmlns="http://www.w3.org/2000/svg">
<path d="M13.0145 30.9282C13.3606 30.9282 13.6375 31.201 13.6375 31.5419C13.6375 31.8828 13.3606 32.0873 13.0145 32.0873H7.40718C3.66897 32.0873 1.31529 33.9282 1.31529 38.4282V43.6782C1.31529 47.2237 3.4613 49.8146 7.40718 49.8146H12.9453C13.2914 49.8146 13.6375 50.0191 13.6375 50.3601C13.6375 50.701 13.3606 50.9737 13.0145 50.9737H7.40718C2.69981 51.0419 0 48.0419 0 43.7464V38.4964C0 33.0419 2.83826 30.9282 7.4764 30.9282H13.0145Z" fill="white"/>
<path d="M32.6055 31.5419C32.6055 31.201 32.9516 30.9282 33.2977 30.9282C33.6439 30.9282 33.8515 31.201 33.9208 31.5419V49.8146H44.0277C44.3739 49.7464 44.72 50.0191 44.72 50.3601V50.4282C44.72 50.7691 44.4431 51.0419 44.097 51.0419C44.097 51.0419 44.097 51.0419 44.0277 51.0419H33.8515C33.2285 51.0419 32.6747 50.5646 32.6055 49.951V49.8828V31.5419Z" fill="white"/>
<path d="M62.9268 31.5419C62.996 31.201 63.2729 30.9282 63.619 30.9282C63.9651 30.9282 64.2421 31.201 64.2421 31.5419V44.701C64.2421 47.9737 66.4573 49.8828 68.7417 49.8828H72.7568C75.3874 49.8828 76.9796 47.7691 76.9796 44.701V31.61C76.9796 31.2691 77.2565 30.9964 77.6027 30.9282C77.6027 30.9282 77.6027 30.9282 77.6719 30.9282C78.018 30.9282 78.2949 31.201 78.3641 31.5419V44.701C78.3641 48.5191 76.2874 51.1101 72.8261 51.1101H68.811C65.765 51.1101 63.0652 48.8601 63.0652 44.701L62.9268 31.5419Z" fill="white"/>
<path d="M103.355 30.9282C106.47 30.9282 109.1 33.0419 109.1 36.11C109.1 38.2919 107.785 39.6555 105.916 40.5419C108.27 41.2919 110 42.9964 110 45.5873C110 48.8601 107.231 51.1101 103.908 51.1101H96.0166C95.3935 51.1101 94.8397 50.6328 94.7705 50.0191V49.951V32.0873C94.7705 31.4737 95.2551 30.9282 95.9474 30.9282H96.0166H103.355ZM103.355 39.9964C105.777 39.9964 107.854 38.4964 107.854 36.11C107.854 33.7237 105.777 32.1555 103.355 32.1555H96.0858V40.0646H103.355V39.9964ZM96.0858 41.1555V49.8146H103.839C106.47 49.8146 108.685 48.1101 108.685 45.5191C108.685 42.9282 106.47 41.1555 103.839 41.1555H96.0858Z" fill="white"/>
<path d="M20.9756 0.0422363C23.3985 0.0422363 25.8214 0.0422363 28.2443 0.0422363C29.9057 0.0422363 31.4979 0.110418 33.0901 0.383145C34.3362 0.587691 35.513 0.9286 36.6899 1.47405C38.7666 2.49678 40.2896 4.54224 40.5665 6.79224C40.705 7.54224 40.7742 8.36042 40.7742 9.1786C40.7742 13.065 40.7742 16.8831 40.7742 20.7695C40.7742 20.9741 40.8434 21.1786 40.9819 21.315C42.0895 22.4059 43.1971 23.4286 44.2355 24.5195C44.8585 25.065 44.997 26.0195 44.4432 26.7013C44.3047 26.9059 44.097 27.1104 43.8894 27.315C43.1971 27.9286 42.0895 27.9286 41.4664 27.2468C41.4664 27.2468 41.4664 27.2468 41.3972 27.1786C40.1511 25.8831 38.7666 24.5195 37.4513 23.2241C37.3129 23.0877 37.1744 23.0195 36.9668 23.0195C32.1209 23.0195 27.2751 23.0195 22.4293 23.0195C20.5602 23.0195 18.6911 22.815 16.822 22.3377C15.4375 21.9968 14.1222 21.315 13.0146 20.3604C11.6993 19.1331 10.8686 17.4968 10.7301 15.7241C10.6609 15.0422 10.5917 14.3604 10.5917 13.6786C10.5917 9.79224 10.5917 5.83769 10.5917 1.95133C10.5225 0.996782 11.2147 0.1786 12.1839 0.110418C12.2531 0.110418 12.2531 0.110418 12.3223 0.110418C12.4608 0.0422363 12.6685 0.0422363 12.8761 0.0422363H20.9756ZM36.7591 19.7468V19.4059C36.7591 15.9968 36.7591 12.6559 36.7591 9.24678C36.7591 8.63314 36.6899 8.01951 36.5514 7.40587C36.3437 5.63315 35.0284 4.26951 33.2978 3.79224C32.2594 3.51951 31.221 3.38315 30.1826 3.38315C25.1291 3.38315 20.0064 3.38315 14.9529 3.38315C14.676 3.38315 14.6068 3.45133 14.6068 3.72405C14.6068 7.06496 14.6068 10.4059 14.6068 13.7468C14.6068 14.3604 14.676 14.9741 14.7452 15.5877C15.0914 17.565 16.2682 18.9286 18.2065 19.3377C19.1065 19.5422 20.0064 19.6786 20.9063 19.6786C26.0291 19.7468 31.221 19.6786 36.3437 19.6786L36.7591 19.7468Z" fill="white"/>
<path d="M95.6704 12.9966C93.5244 12.9966 91.3784 12.9966 89.1632 12.9966C87.9864 12.9966 86.8095 12.8603 85.7019 12.4512C84.1789 11.9739 83.0021 10.7466 82.7252 9.17845C82.4483 7.67845 82.3791 6.11027 82.5867 4.54208C82.7944 2.90572 83.7636 1.88299 85.2173 1.26936C86.3249 0.792084 87.571 0.451174 88.8171 0.382993C90.8246 0.178447 92.763 0.0420836 94.7705 0.110265C96.5704 0.110265 98.4395 0.110265 100.239 0.110265C101.97 0.110265 103.77 0.314811 105.431 0.792084C106.4 1.06481 107.231 1.54208 107.923 2.2239C108.546 2.83754 108.893 3.65572 108.893 4.54208C108.962 5.36027 108.408 6.11027 107.577 6.17845C107.023 6.31481 106.4 6.24663 105.847 5.90572C105.57 5.76936 105.362 5.49663 105.224 5.2239C104.808 4.06481 103.908 3.65572 102.731 3.51936C101.832 3.38299 100.932 3.38299 99.9624 3.31481C97.3319 3.31481 94.7705 3.31481 92.1399 3.31481C90.8939 3.31481 89.6478 3.38299 88.4017 3.58754C87.0172 3.86027 86.5326 4.40572 86.3942 5.76936C86.3249 6.45117 86.3249 7.13299 86.4634 7.81481C86.5326 8.63299 87.0864 9.24663 87.8479 9.45117C88.6786 9.7239 89.5786 9.79208 90.4093 9.79208C94.2167 9.79208 97.9549 9.79208 101.762 9.79208C103.147 9.79208 104.601 9.92845 105.985 10.2694C108.27 10.883 109.446 12.383 109.793 14.7012C110 15.9284 110 17.1557 109.723 18.383C109.308 20.2239 107.854 21.7239 105.985 22.2694C104.739 22.6784 103.355 22.9512 102.039 22.9512C98.301 22.9512 94.4936 22.9512 90.7554 22.9512C89.1632 22.9512 87.571 22.7466 86.048 22.4057C85.1481 22.2012 84.3174 21.7921 83.6251 21.2466C82.7944 20.633 82.3098 19.6784 82.2406 18.6557C82.1022 17.5648 83.0021 16.7466 84.2482 16.883C85.0789 16.883 85.7711 17.3603 86.048 18.1103C86.3249 18.7921 86.8788 19.2694 87.571 19.4057C88.471 19.6784 89.3709 19.7466 90.2708 19.7466C93.5937 19.7466 96.8473 19.7466 100.17 19.7466C101.485 19.8148 102.801 19.6784 104.116 19.3375C105.362 18.9966 105.916 18.383 105.985 17.0875C106.054 16.4057 105.985 15.7239 105.916 15.0421C105.847 14.3603 105.362 13.7466 104.67 13.5421C103.701 13.133 102.662 12.9966 101.624 12.9966C99.7548 12.9966 97.678 12.9966 95.6704 12.9966Z" fill="white"/>
<path d="M61.6109 22.9509C60.0879 22.9509 58.4957 23.0191 56.9728 22.9509C55.1729 22.9509 53.373 22.61 51.6424 21.9963C48.9425 21.11 47.0042 18.7236 46.7273 15.9281C46.6581 15.2463 46.5889 14.4963 46.5889 13.8145C46.5889 12.2463 46.5889 10.6781 46.5889 9.10996C46.5889 7.88269 46.7273 6.65542 47.1427 5.42814C47.9042 3.38269 49.4964 1.81451 51.5731 1.13269C53.0269 0.587235 54.5498 0.246326 56.142 0.246326C59.188 0.178144 62.2339 0.109962 65.3491 0.178144C67.2874 0.178144 69.2258 0.38269 71.0949 0.996326C72.8947 1.4736 74.4869 2.63269 75.5253 4.20087C76.2868 5.35996 76.6329 6.7236 76.7022 8.08723C76.7714 10.2691 76.7714 12.5191 76.7714 14.7009C76.7714 16.0645 76.4253 17.4963 75.8022 18.7236C74.9023 20.4281 73.3101 21.7236 71.441 22.2691C69.9872 22.7463 68.4643 23.0191 66.9413 23.0872C65.2106 23.1554 63.48 23.1554 61.6801 23.2236V22.9509H61.6109ZM61.6109 3.31451C60.2264 3.31451 58.8419 3.24633 57.4573 3.31451C56.4882 3.31451 55.519 3.45087 54.5499 3.58723C53.3038 3.79178 52.1269 4.4736 51.3655 5.49633C50.7424 6.45087 50.3963 7.54178 50.4655 8.70087C50.3963 10.4054 50.4655 12.0418 50.4655 13.7463C50.4655 14.2918 50.5347 14.9054 50.604 15.4509C50.8116 17.36 52.2654 18.9281 54.2037 19.3372C55.3806 19.61 56.5574 19.7463 57.7342 19.7463C60.2956 19.7463 62.9262 19.8145 65.4876 19.7463C66.5259 19.7463 67.4951 19.61 68.5335 19.4736C69.6411 19.3372 70.6795 18.7918 71.3718 17.9736C72.2025 17.0191 72.6871 15.7918 72.6178 14.4963C72.6871 12.6554 72.6871 10.8827 72.6178 9.04178C72.6178 8.42814 72.5486 7.81451 72.4101 7.20087C72.1332 5.56451 70.9564 4.20087 69.295 3.7236C68.2566 3.38269 67.2182 3.24633 66.1106 3.24633C64.7261 3.24633 63.1339 3.31451 61.6109 3.31451Z" fill="white"/>
<path d="M4.22322 11.5647C4.22322 14.7011 4.22322 17.8374 4.22322 20.9738C4.22322 21.3147 4.154 21.6556 4.01555 21.9283C3.66942 22.7465 2.70025 23.2238 1.80031 22.9511C0.900377 22.8147 0.277344 22.0647 0.277344 21.2465C0.277344 19.8147 0.277344 18.4511 0.277344 17.0192C0.277344 12.042 0.277344 6.99651 0.277344 1.95106C0.277344 -0.0262175 2.21567 -0.298945 3.25406 0.24651C3.87709 0.587419 4.22322 1.26924 4.154 1.95106C4.154 4.26924 4.154 6.58742 4.154 8.97378L4.22322 11.5647Z" fill="white"/>
</svg>
