<svg width="30" height="30" viewBox="0 0 30 30" fill="none" xmlns="http://www.w3.org/2000/svg">
<path d="M21.1125 2.77233C22.5313 2.83594 23.3149 3.06918 23.8231 3.28121C24.5007 3.55686 24.9878 3.8537 25.496 4.38379C26.0043 4.89267 26.3219 5.38034 26.5972 6.05885C26.7878 6.56773 27.0419 7.35225 27.1055 8.77287C27.2749 12.6955 27.2749 16.6817 27.1055 20.6043C27.0419 22.025 26.809 22.8095 26.5972 23.3184C26.3219 23.9969 26.0043 24.4845 25.496 24.9934C24.9878 25.5023 24.5007 25.8203 23.8231 26.096C23.3149 26.2868 22.5313 26.5413 21.1125 26.6049C17.1948 26.7745 13.2136 26.7745 9.29598 26.6049C7.87715 26.5413 7.09362 26.308 6.58538 26.096C5.90773 25.8203 5.42067 25.5023 4.91243 24.9934C4.4042 24.4845 4.08655 23.9969 3.81125 23.3184C3.62066 22.8095 3.36654 22.025 3.30301 20.6043C3.1336 16.6817 3.1336 12.6955 3.30301 8.77287C3.38772 7.33105 3.62066 6.56773 3.81125 6.05885C4.08655 5.35914 4.4042 4.87146 4.91243 4.36258C5.42067 3.8537 5.90773 3.53565 6.58538 3.28121C7.11479 3.06918 7.87715 2.83594 9.31716 2.77233C13.2348 2.5815 17.1948 2.5815 21.1125 2.77233ZM9.1901 0.143122C7.62303 0.206732 6.5642 0.461172 5.63244 0.821629C4.67949 1.18209 3.85361 1.69096 3.0489 2.49669C2.24419 3.32362 1.73595 4.12935 1.37595 5.1047C0.99477 6.01644 0.761828 7.09781 0.677121 8.64565C0.486532 12.6531 0.486532 16.7029 0.677121 20.7103C0.740651 22.2582 0.99477 23.3396 1.35477 24.2725C1.73595 25.2267 2.22301 26.0536 3.0489 26.8593C3.85361 27.665 4.67949 28.1739 5.63244 28.5556C6.5642 28.916 7.62303 29.1705 9.1901 29.2341C13.1925 29.4037 17.2372 29.4037 21.2396 29.2341C22.7854 29.1705 23.8655 28.916 24.7972 28.5556C25.7502 28.1739 26.5761 27.6862 27.3808 26.8593C28.1855 26.0536 28.6937 25.2267 29.0749 24.2725C29.4349 23.3396 29.689 22.2794 29.7525 20.7103C29.9431 16.7029 29.9431 12.6531 29.7525 8.64565C29.689 7.09781 29.4349 6.01644 29.0749 5.1047C28.6937 4.15055 28.2066 3.32362 27.3808 2.51789C26.5761 1.71217 25.7502 1.20329 24.7972 0.821629C23.8655 0.461172 22.8066 0.206732 21.2396 0.143122C17.2372 -0.0477075 13.1925 -0.0477075 9.1901 0.143122ZM15.2254 7.16142C11.0748 7.16142 7.72892 10.5327 7.72892 14.6674C7.72892 18.8232 11.096 22.1734 15.2254 22.1734C19.376 22.1734 22.7219 18.802 22.7219 14.6674C22.7219 10.5327 19.3548 7.16142 15.2254 7.16142ZM15.2254 19.5654C12.536 19.5654 10.3548 17.3814 10.3548 14.6886C10.3548 11.9958 12.536 9.81184 15.2254 9.81184C17.9148 9.81184 20.096 11.9958 20.096 14.6886C20.096 17.3814 17.9148 19.5654 15.2254 19.5654ZM24.776 6.86457C24.776 7.83993 23.9925 8.62445 23.0184 8.62445C22.0443 8.62445 21.2607 7.83993 21.2607 6.86457C21.2607 5.88922 22.0443 5.1047 23.0184 5.1047C23.9925 5.1047 24.776 5.88922 24.776 6.86457Z" fill="#765151"/>
</svg>
