<svg width="31" height="30" viewBox="0 0 31 30" fill="none" xmlns="http://www.w3.org/2000/svg">
<path d="M19.8639 0C11.6419 0 19.0778 0 10.8558 0C2.63379 0 0.679199 1.95459 0.679199 10.1766C0.679199 14.7656 0.679199 10.9627 0.679199 19.1847C0.679199 27.4067 2.63379 29.3613 10.8558 29.3613C19.0778 29.3613 11.6419 29.3613 19.8639 29.3613C28.0859 29.3613 30.0405 27.4067 30.0405 19.1847C30.0405 10.9627 30.0405 18.3986 30.0405 10.1766C30.0192 1.95459 28.0647 0 19.8639 0ZM24.3679 20.9481H22.2221C21.4148 20.9481 21.1599 20.2895 19.7152 18.8448C18.4404 17.6125 17.9093 17.4638 17.5906 17.4638C17.1657 17.4638 17.0382 17.5913 17.0382 18.2074V20.1195C17.0382 20.6506 16.8683 20.9481 15.5086 20.9481C13.2353 20.9481 10.7496 19.5671 8.98619 17.0389C6.33051 13.2997 5.60816 10.4953 5.60816 9.92165C5.60816 9.60297 5.73563 9.32678 6.35175 9.32678H8.49755C9.04993 9.32678 9.24114 9.56048 9.4536 10.1554C10.4946 13.1935 12.258 15.8704 12.9803 15.8704C13.2565 15.8704 13.384 15.7429 13.384 15.0631V11.8975C13.299 10.4528 12.5342 10.3253 12.5342 9.81543C12.5342 9.58173 12.7466 9.32678 13.0866 9.32678H16.4434C16.8895 9.32678 17.0595 9.56048 17.0595 10.1129V14.362C17.0595 14.8081 17.2507 14.9781 17.3994 14.9781C17.6756 14.9781 17.8881 14.8294 18.398 14.3195C19.9489 12.5986 21.0324 9.9429 21.0324 9.9429C21.1386 9.60297 21.3936 9.32678 21.9247 9.32678H24.0705C24.7079 9.32678 24.8566 9.66671 24.7079 10.1129C24.4317 11.3663 21.8185 15.0418 21.8185 15.0418C21.5848 15.403 21.4998 15.5942 21.8185 15.9979C22.0522 16.3166 22.7958 16.9539 23.2844 17.5488C24.198 18.5898 24.8991 19.4609 25.0903 20.0558C25.2815 20.6294 24.9841 20.9481 24.3679 20.9481Z" fill="#765151"/>
</svg>
