<svg width="50" height="23" viewBox="0 0 50 23" fill="none" xmlns="http://www.w3.org/2000/svg">
<path d="M5.91567 13.929C6.073 13.929 6.19887 14.052 6.19887 14.2057C6.19887 14.3594 6.073 14.4517 5.91567 14.4517H3.3669C1.66772 14.4517 0.59786 15.2819 0.59786 17.3113V19.679C0.59786 21.2779 1.57332 22.4463 3.3669 22.4463H5.8842C6.04154 22.4463 6.19887 22.5386 6.19887 22.6923C6.19887 22.8461 6.073 22.9691 5.91567 22.9691H3.3669C1.22719 22.9998 0 21.6469 0 19.7097V17.3421C0 14.8822 1.29012 13.929 3.39836 13.929H5.91567V13.929Z" fill="white"/>
<path d="M14.8208 14.2057C14.8208 14.052 14.9781 13.929 15.1355 13.929C15.2928 13.929 15.3872 14.052 15.4187 14.2057V22.4463H20.0127C20.1701 22.4156 20.3274 22.5386 20.3274 22.6923V22.7231C20.3274 22.8768 20.2015 22.9998 20.0442 22.9998C20.0442 22.9998 20.0442 22.9998 20.0127 22.9998H15.3872C15.104 22.9998 14.8523 22.7846 14.8208 22.5078V22.4771V14.2057Z" fill="white"/>
<path d="M28.603 14.2057C28.6345 14.052 28.7604 13.929 28.9177 13.929C29.075 13.929 29.2009 14.052 29.2009 14.2057V20.1402C29.2009 21.6161 30.2078 22.4771 31.2462 22.4771H33.0712C34.267 22.4771 34.9907 21.5239 34.9907 20.1402V14.2364C34.9907 14.0827 35.1166 13.9597 35.2739 13.929C35.2739 13.929 35.2739 13.929 35.3054 13.929C35.4627 13.929 35.5885 14.052 35.62 14.2057V20.1402C35.62 21.8621 34.676 23.0306 33.1027 23.0306H31.2777C29.8931 23.0306 28.666 22.0159 28.666 20.1402L28.603 14.2057Z" fill="white"/>
<path d="M46.9795 13.929C48.3954 13.929 49.5912 14.8822 49.5912 16.2659C49.5912 17.2498 48.9933 17.8648 48.1437 18.2645C49.2136 18.6028 50.0002 19.3715 50.0002 20.5399C50.0002 22.0159 48.7416 23.0306 47.2312 23.0306H43.644C43.3608 23.0306 43.1091 22.8153 43.0776 22.5386V22.5078V14.4517C43.0776 14.1749 43.2979 13.929 43.6126 13.929H43.644H46.9795ZM46.9795 18.0185C48.0808 18.0185 49.0248 17.3421 49.0248 16.2659C49.0248 15.1897 48.0808 14.4824 46.9795 14.4824H43.6755V18.0493H46.9795V18.0185ZM43.6755 18.5413V22.4463H47.1997C48.3954 22.4463 49.4024 21.6776 49.4024 20.5092C49.4024 19.3407 48.3954 18.5413 47.1997 18.5413H43.6755Z" fill="white"/>
<path d="M9.53413 0C10.6354 0 11.7368 0 12.8381 0C13.5933 0 14.317 0.0307487 15.0407 0.153743C15.6071 0.245989 16.1421 0.399733 16.677 0.645722C17.621 1.10695 18.3132 2.02941 18.4391 3.04412C18.502 3.38235 18.5335 3.75134 18.5335 4.12032C18.5335 5.87299 18.5335 7.59492 18.5335 9.34759C18.5335 9.43984 18.565 9.53209 18.6279 9.59358C19.1314 10.0856 19.6348 10.5468 20.1068 11.0388C20.39 11.2848 20.4529 11.7152 20.2012 12.0227C20.1383 12.115 20.0439 12.2072 19.9495 12.2995C19.6348 12.5762 19.1314 12.5762 18.8482 12.2687C18.8482 12.2687 18.8482 12.2687 18.8167 12.238C18.2503 11.6537 17.621 11.0388 17.0231 10.4545C16.9602 10.393 16.8972 10.3623 16.8028 10.3623C14.6002 10.3623 12.3976 10.3623 10.1949 10.3623C9.34533 10.3623 8.49574 10.2701 7.64615 10.0548C7.01682 9.90107 6.41896 9.59358 5.9155 9.1631C5.31764 8.60963 4.94004 7.87166 4.87711 7.07219C4.84564 6.76471 4.81418 6.45722 4.81418 6.14973C4.81418 4.39706 4.81418 2.61364 4.81418 0.860963C4.78271 0.430481 5.09738 0.0614973 5.5379 0.0307487C5.56937 0.0307487 5.56937 0.0307487 5.60084 0.0307487C5.66377 0 5.75817 0 5.85257 0H9.53413ZM16.7084 8.88636V8.73262C16.7084 7.19519 16.7084 5.6885 16.7084 4.15107C16.7084 3.87433 16.677 3.59759 16.6141 3.32086C16.5197 2.52139 15.9218 1.90642 15.1351 1.69118C14.6631 1.56818 14.1911 1.50668 13.7191 1.50668C11.4221 1.50668 9.0936 1.50668 6.79656 1.50668C6.67069 1.50668 6.63923 1.53743 6.63923 1.66043C6.63923 3.16711 6.63923 4.6738 6.63923 6.18048C6.63923 6.45722 6.67069 6.73396 6.70216 7.01069C6.85949 7.90241 7.39442 8.51738 8.27547 8.70187C8.68454 8.79412 9.0936 8.85561 9.50266 8.85561C11.8312 8.88636 14.1911 8.85561 16.5197 8.85561L16.7084 8.88636Z" fill="white"/>
<path d="M43.4863 5.8422C42.5109 5.8422 41.5354 5.8422 40.5285 5.8422C39.9936 5.8422 39.4587 5.7807 38.9552 5.59621C38.2629 5.38097 37.728 4.82749 37.6021 4.12028C37.4763 3.44381 37.4448 2.73659 37.5392 2.02937C37.6336 1.2914 38.0741 0.830169 38.7349 0.553431C39.2384 0.33819 39.8048 0.184447 40.3712 0.153698C41.2837 0.0614524 42.1648 -4.49472e-05 43.0773 0.0307037C43.8954 0.0307037 44.745 0.0307037 45.5631 0.0307037C46.3498 0.0307037 47.1679 0.12295 47.9231 0.33819C48.3636 0.461185 48.7412 0.676426 49.0559 0.983912C49.3391 1.26065 49.4964 1.62963 49.4964 2.02937C49.5279 2.39835 49.2762 2.73659 48.8986 2.76733C48.6468 2.82883 48.3636 2.79808 48.1119 2.64434C47.986 2.58284 47.8916 2.45985 47.8287 2.33685C47.6399 1.81413 47.2308 1.62963 46.6959 1.56814C46.2868 1.50664 45.8778 1.50664 45.4373 1.47589C44.2415 1.47589 43.0773 1.47589 41.8816 1.47589C41.3152 1.47589 40.7488 1.50664 40.1824 1.59889C39.5531 1.72188 39.3328 1.96787 39.2699 2.58284C39.2384 2.89033 39.2384 3.19782 39.3013 3.5053C39.3328 3.87429 39.5845 4.15102 39.9307 4.24327C40.3082 4.36627 40.7173 4.39701 41.0949 4.39701C42.8256 4.39701 44.5247 4.39701 46.2554 4.39701C46.8847 4.39701 47.5455 4.45851 48.1748 4.61225C49.2132 4.88899 49.7482 5.56546 49.9055 6.61092C49.9999 7.16439 49.9999 7.71787 49.874 8.27134C49.6852 9.10156 49.0244 9.77803 48.1748 10.024C47.6084 10.2085 46.9791 10.3315 46.3812 10.3315C44.6821 10.3315 42.9514 10.3315 41.2522 10.3315C40.5285 10.3315 39.8048 10.2393 39.1125 10.0855C38.7035 9.99327 38.3259 9.80878 38.0112 9.56279C37.6336 9.28605 37.4133 8.85557 37.3819 8.39434C37.3189 7.90236 37.728 7.53338 38.2944 7.59487C38.672 7.59487 38.9867 7.81012 39.1125 8.14835C39.2384 8.45584 39.4901 8.67108 39.8048 8.73257C40.2138 8.85557 40.6229 8.88632 41.032 8.88632C42.5424 8.88632 44.0213 8.88632 45.5317 8.88632C46.1295 8.91707 46.7274 8.85557 47.3252 8.70183C47.8916 8.54808 48.1434 8.27134 48.1748 7.68712C48.2063 7.37963 48.1748 7.07215 48.1434 6.76466C48.1119 6.45717 47.8916 6.18044 47.577 6.08819C47.1364 5.9037 46.6644 5.8422 46.1925 5.8422C45.3429 5.8422 44.3989 5.8422 43.4863 5.8422Z" fill="white"/>
<path d="M28.005 10.3314C27.3127 10.3314 26.589 10.3621 25.8967 10.3314C25.0786 10.3314 24.2605 10.1776 23.4738 9.90089C22.2466 9.50116 21.3656 8.42496 21.2397 7.16426C21.2082 6.85677 21.1768 6.51854 21.1768 6.21105C21.1768 5.50383 21.1768 4.79661 21.1768 4.0894C21.1768 3.53592 21.2397 2.98244 21.4285 2.42897C21.7746 1.50651 22.4983 0.799288 23.4423 0.491802C24.1031 0.245812 24.7954 0.0920692 25.5191 0.0920692C26.9036 0.0613205 28.2882 0.0305718 29.7041 0.0613205C30.5852 0.0613205 31.4662 0.153566 32.3158 0.430304C33.134 0.645545 33.8577 1.16827 34.3297 1.87549C34.6758 2.39822 34.8331 3.01319 34.8646 3.62817C34.8961 4.61212 34.8961 5.62683 34.8961 6.61079C34.8961 7.22576 34.7387 7.87148 34.4556 8.42496C34.0465 9.19367 33.3228 9.7779 32.4732 10.0239C31.8124 10.2391 31.1201 10.3621 30.4279 10.3929C29.6412 10.4236 28.8545 10.4236 28.0364 10.4544V10.3314H28.005ZM28.005 1.47576C27.3756 1.47576 26.7463 1.44501 26.117 1.47576C25.6764 1.47576 25.2359 1.53726 24.7954 1.59875C24.229 1.691 23.6941 1.99849 23.3479 2.45972C23.0647 2.8902 22.9074 3.38218 22.9389 3.9049C22.9074 4.67362 22.9389 5.41159 22.9389 6.1803C22.9389 6.42629 22.9703 6.70303 23.0018 6.94902C23.0962 7.80998 23.757 8.5172 24.6381 8.70169C25.173 8.82469 25.7079 8.88619 26.2428 8.88619C27.4071 8.88619 28.6028 8.91694 29.7671 8.88619C30.2391 8.88619 30.6796 8.82469 31.1516 8.76319C31.655 8.70169 32.127 8.45571 32.4417 8.08672C32.8193 7.65624 33.0396 7.10276 33.0081 6.51854C33.0396 5.68833 33.0396 4.88886 33.0081 4.05865C33.0081 3.78191 32.9766 3.50517 32.9137 3.22843C32.7878 2.49046 32.2529 1.87549 31.4977 1.66025C31.0257 1.50651 30.5537 1.44501 30.0503 1.44501C29.4209 1.44501 28.6972 1.47576 28.005 1.47576Z" fill="white"/>
<path d="M1.91956 5.19641C1.91956 6.61084 1.91956 8.02528 1.91956 9.43972C1.91956 9.59346 1.88809 9.74721 1.82516 9.8702C1.66783 10.2392 1.2273 10.4544 0.818236 10.3314C0.409174 10.2699 0.125977 9.9317 0.125977 9.56272C0.125977 8.91699 0.125977 8.30202 0.125977 7.6563C0.125977 5.41165 0.125977 3.13625 0.125977 0.860845C0.125977 -0.0308666 1.00703 -0.153861 1.47903 0.0921282C1.76223 0.245871 1.91956 0.553358 1.88809 0.860845C1.88809 1.9063 1.88809 2.95175 1.88809 4.02796L1.91956 5.19641Z" fill="white"/>
</svg>
