<svg width="17" height="17" viewBox="0 0 17 17" fill="none" xmlns="http://www.w3.org/2000/svg">
<path d="M10.7588 0.49707C6.1479 0.49707 10.318 0.49707 5.70706 0.49707C1.09614 0.49707 0 1.59321 0 6.20413C0 8.77767 0 6.64497 0 11.2559C0 15.8668 1.09614 16.963 5.70706 16.963C10.318 16.963 6.1479 16.963 10.7588 16.963C15.3697 16.963 16.4659 15.8668 16.4659 11.2559C16.4659 6.64497 16.4659 10.8151 16.4659 6.20413C16.454 1.59321 15.3578 0.49707 10.7588 0.49707ZM13.2847 12.2448H12.0813C11.6286 12.2448 11.4856 11.8754 10.6754 11.0653C9.96055 10.3742 9.66268 10.2908 9.48397 10.2908C9.24568 10.2908 9.17419 10.3623 9.17419 10.7078V11.7801C9.17419 12.078 9.07887 12.2448 8.31634 12.2448C7.04149 12.2448 5.64749 11.4704 4.65858 10.0525C3.16927 7.95557 2.76417 6.38285 2.76417 6.06116C2.76417 5.88244 2.83566 5.72755 3.18118 5.72755H4.38455C4.69432 5.72755 4.80156 5.85861 4.9207 6.19222C5.50451 7.89599 6.49342 9.39722 6.89851 9.39722C7.0534 9.39722 7.12489 9.32574 7.12489 8.94447V7.16921C7.07723 6.35902 6.64831 6.28753 6.64831 6.00158C6.64831 5.87052 6.76745 5.72755 6.95809 5.72755H8.84058C9.09079 5.72755 9.1861 5.85861 9.1861 6.16839V8.55129C9.1861 8.8015 9.29333 8.89681 9.37673 8.89681C9.53162 8.89681 9.65077 8.81341 9.93672 8.52746C10.8065 7.56239 11.4141 6.07307 11.4141 6.07307C11.4737 5.88244 11.6167 5.72755 11.9145 5.72755H13.1179C13.4753 5.72755 13.5587 5.91818 13.4753 6.16839C13.3204 6.87134 11.855 8.93256 11.855 8.93256C11.7239 9.1351 11.6762 9.24234 11.855 9.46871C11.986 9.64743 12.403 10.0049 12.6771 10.3385C13.1894 10.9223 13.5826 11.4108 13.6898 11.7444C13.797 12.0661 13.6302 12.2448 13.2847 12.2448Z" fill="#765151"/>
</svg>
