<svg width="17" height="17" viewBox="0 0 17 17" fill="none" xmlns="http://www.w3.org/2000/svg">
<path d="M11.5404 2.0518C12.336 2.08747 12.7755 2.21827 13.0605 2.33718C13.4405 2.49176 13.7136 2.65824 13.9987 2.95551C14.2837 3.24089 14.4618 3.51438 14.6162 3.89489C14.7231 4.18027 14.8656 4.62023 14.9012 5.41692C14.9962 7.61673 14.9962 9.85221 14.9012 12.052C14.8656 12.8487 14.735 13.2887 14.6162 13.5741C14.4618 13.9546 14.2837 14.2281 13.9987 14.5134C13.7136 14.7988 13.4405 14.9772 13.0605 15.1318C12.7755 15.2388 12.336 15.3815 11.5404 15.4171C9.34333 15.5123 7.11067 15.5123 4.91364 15.4171C4.11795 15.3815 3.67855 15.2507 3.39353 15.1318C3.0135 14.9772 2.74035 14.7988 2.45533 14.5134C2.17031 14.2281 1.99218 13.9546 1.83779 13.5741C1.73091 13.2887 1.5884 12.8487 1.55277 12.052C1.45776 9.85221 1.45776 7.61673 1.55277 5.41692C1.60027 4.60834 1.73091 4.18027 1.83779 3.89489C1.99218 3.50249 2.17031 3.229 2.45533 2.94362C2.74035 2.65824 3.0135 2.47987 3.39353 2.33718C3.69042 2.21827 4.11795 2.08747 4.92551 2.0518C7.12255 1.94478 9.34333 1.94478 11.5404 2.0518ZM4.85426 0.577334C3.97544 0.613006 3.38165 0.755697 2.85911 0.957841C2.3247 1.15999 1.86154 1.44537 1.41026 1.89722C0.958976 2.36096 0.673955 2.81282 0.472065 3.3598C0.2583 3.8711 0.127665 4.47754 0.0801621 5.34557C-0.0267207 7.59295 -0.0267207 9.8641 0.0801621 12.1115C0.11579 12.9795 0.2583 13.5859 0.46019 14.1091C0.673955 14.6442 0.9471 15.108 1.41026 15.5598C1.86154 16.0117 2.3247 16.2971 2.85911 16.5111C3.38165 16.7132 3.97544 16.8559 4.85426 16.8916C7.09879 16.9867 9.36708 16.9867 11.6116 16.8916C12.4786 16.8559 13.0842 16.7132 13.6068 16.5111C14.1412 16.2971 14.6043 16.0236 15.0556 15.5598C15.5069 15.108 15.7919 14.6442 16.0057 14.1091C16.2076 13.5859 16.3501 12.9914 16.3857 12.1115C16.4926 9.8641 16.4926 7.59295 16.3857 5.34557C16.3501 4.47754 16.2076 3.8711 16.0057 3.3598C15.7919 2.82471 15.5188 2.36096 15.0556 1.90911C14.6043 1.45726 14.1412 1.17188 13.6068 0.957841C13.0842 0.755697 12.4904 0.613006 11.6116 0.577334C9.36708 0.470316 7.09879 0.470316 4.85426 0.577334ZM8.23888 4.51321C5.91121 4.51321 4.03482 6.40386 4.03482 8.72258C4.03482 11.0532 5.92308 12.9319 8.23888 12.9319C10.5665 12.9319 12.4429 11.0413 12.4429 8.72258C12.4429 6.40386 10.5547 4.51321 8.23888 4.51321ZM8.23888 11.4694C6.73064 11.4694 5.50743 10.2446 5.50743 8.73447C5.50743 7.22433 6.73064 5.99957 8.23888 5.99957C9.74711 5.99957 10.9703 7.22433 10.9703 8.73447C10.9703 10.2446 9.74711 11.4694 8.23888 11.4694ZM13.5949 4.34674C13.5949 4.89372 13.1555 5.33368 12.6092 5.33368C12.0629 5.33368 11.6235 4.89372 11.6235 4.34674C11.6235 3.79976 12.0629 3.3598 12.6092 3.3598C13.1555 3.3598 13.5949 3.79976 13.5949 4.34674Z" fill="#765151"/>
</svg>
